<svg xmlns="http://www.w3.org/2000/svg" width="19" height="14" viewBox="0 0 19 14"><g><g opacity=".5"><path fill="#313131" d="M16.488 13H2.138A1.158 1.158 0 0 1 1 11.863V2.5c0-.613.525-1.137 1.138-1.137h14.35c.612 0 1.137.525 1.137 1.137v9.363c0 .612-.525 1.137-1.137 1.137z"/><path fill="none" stroke="#313131" stroke-miterlimit="50" d="M16.488 13H2.138A1.158 1.158 0 0 1 1 11.863V2.5c0-.613.525-1.137 1.138-1.137h14.35c.612 0 1.137.525 1.137 1.137v9.363c0 .612-.525 1.137-1.137 1.137z"/></g></g></svg>