<svg xmlns="http://www.w3.org/2000/svg" width="19" height="16" viewBox="0 0 19 16"><g><g opacity=".5"><g opacity=".5"><path fill="#313131" d="M16.488 15H2.138A1.158 1.158 0 0 1 1 13.863V4.5c0-.613.525-1.137 1.138-1.137h14.35c.612 0 1.137.524 1.137 1.137v9.363c0 .612-.525 1.137-1.137 1.137z"/><path fill="none" stroke="#313131" stroke-miterlimit="50" d="M16.488 15H2.138A1.158 1.158 0 0 1 1 13.863V4.5c0-.613.525-1.137 1.138-1.137h14.35c.612 0 1.137.524 1.137 1.137v9.363c0 .612-.525 1.137-1.137 1.137z"/></g><g opacity=".5"><path fill="none" stroke="#fff" stroke-miterlimit="50" d="M15.175 3.888v10.587"/></g><g opacity=".5"><path fill="none" stroke="#fff" stroke-miterlimit="50" d="M3.45 14.475V3.887"/></g><g opacity=".5"><path fill="none" stroke="#313131" stroke-miterlimit="50" d="M11.762 3.275v0-1.663A.598.598 0 0 0 11.15 1H7.475a.598.598 0 0 0-.613.612v1.575"/></g></g></g></svg>