<svg xmlns="http://www.w3.org/2000/svg" width="17" height="16" viewBox="0 0 17 16"><defs><clipPath id="msowa"><path fill="#fff" d="M7.533 9.4a.933.933 0 1 1 1.867 0 .933.933 0 0 1-1.867 0z"/></clipPath><clipPath id="msowb"><path fill="#fff" d="M7.533 12.2a.933.933 0 1 1 1.867 0 .933.933 0 0 1-1.867 0z"/></clipPath><clipPath id="msowc"><path fill="#fff" d="M4.733 12.2a.933.933 0 1 1 1.867 0 .933.933 0 0 1-1.867 0z"/></clipPath><clipPath id="msowd"><path fill="#fff" d="M4.733 9.4a.933.933 0 1 1 1.867 0 .933.933 0 0 1-1.867 0z"/></clipPath><clipPath id="msowe"><path fill="#fff" d="M10.333 9.4a.933.933 0 1 1 1.867 0 .933.933 0 0 1-1.867 0z"/></clipPath></defs><g><g opacity=".5"><g opacity=".5"><path fill="none" stroke="#313131" stroke-miterlimit="50" d="M15.933 12.09L15 13.449A3.543 3.543 0 0 1 12.107 15h-9.8C1.56 15 1 14.418 1 13.642V2.88c0-.291.28-.582.56-.582h14.373c.28 0 .56.29.56.582v7.079c.094.775-.186 1.551-.56 2.133z"/></g><g opacity=".5"><path fill="none" stroke="#313131" stroke-miterlimit="50" d="M13.88 14.418v0-2.327c0-.291.28-.582.56-.485l1.493.097v0"/></g><g opacity=".5"><path fill="#313131" d="M16.307 6.273H1v-3.2c0-.485.373-.873.84-.873h13.72c.467 0 .84.388.84.873v3.2z"/><path fill="none" stroke="#313131" stroke-miterlimit="50" stroke-width=".99" d="M16.307 6.273v0H1v0-3.2c0-.485.373-.873.84-.873h13.72c.467 0 .84.388.84.873v3.2z"/></g><g opacity=".5"><g opacity=".5"><path fill="#313131" d="M4.36 4.2V1"/><path fill="none" stroke="#313131" stroke-linecap="round" stroke-miterlimit="50" stroke-width="2" d="M4.36 4.2V1"/></g><g opacity=".5"><path fill="#313131" d="M13.227 4.2V1"/><path fill="none" stroke="#313131" stroke-linecap="round" stroke-miterlimit="50" stroke-width="2" d="M13.227 4.2V1"/></g></g><g opacity=".5"><path fill="#fff" d="M7.533 9.4a.933.933 0 1 1 1.867 0 .933.933 0 0 1-1.867 0z"/><path fill="none" stroke="#313131" stroke-miterlimit="50" stroke-width="2" d="M7.533 9.4a.933.933 0 1 1 1.867 0 .933.933 0 0 1-1.867 0z" clip-path="url(&quot;#msowa&quot;)"/></g><g opacity=".5"><path fill="#fff" d="M7.533 12.2a.933.933 0 1 1 1.867 0 .933.933 0 0 1-1.867 0z"/><path fill="none" stroke="#313131" stroke-miterlimit="50" stroke-width="2" d="M7.533 12.2a.933.933 0 1 1 1.867 0 .933.933 0 0 1-1.867 0z" clip-path="url(&quot;#msowb&quot;)"/></g><g opacity=".5"><path fill="#fff" d="M4.733 12.2a.933.933 0 1 1 1.867 0 .933.933 0 0 1-1.867 0z"/><path fill="none" stroke="#313131" stroke-miterlimit="50" stroke-width="2" d="M4.733 12.2a.933.933 0 1 1 1.867 0 .933.933 0 0 1-1.867 0z" clip-path="url(&quot;#msowc&quot;)"/></g><g opacity=".5"><path fill="#fff" d="M4.733 9.4a.933.933 0 1 1 1.867 0 .933.933 0 0 1-1.867 0z"/><path fill="none" stroke="#313131" stroke-miterlimit="50" stroke-width="2" d="M4.733 9.4a.933.933 0 1 1 1.867 0 .933.933 0 0 1-1.867 0z" clip-path="url(&quot;#msowd&quot;)"/></g><g opacity=".5"><path fill="#fff" d="M10.333 9.4a.933.933 0 1 1 1.867 0 .933.933 0 0 1-1.867 0z"/><path fill="none" stroke="#313131" stroke-miterlimit="50" stroke-width="2" d="M10.333 9.4a.933.933 0 1 1 1.867 0 .933.933 0 0 1-1.867 0z" clip-path="url(&quot;#msowe&quot;)"/></g></g></g></svg>