<svg xmlns="http://www.w3.org/2000/svg" width="18" height="10" viewBox="0 0 18 10"><g><g opacity=".5"><g opacity=".5"><path fill="none" stroke="#313131" stroke-miterlimit="50" d="M1 8.7v0-7.6 0h15.511v7.6z"/></g><g opacity=".5"><path fill="#313131" d="M1 4.9l3.723 3.8H1z"/><path fill="none" stroke="#313131" stroke-miterlimit="50" stroke-width=".99" d="M1 4.9v0l3.723 3.8v0H1v0z"/></g><g opacity=".5"><path fill="#313131" d="M16.511 4.9L12.79 1.1h3.722z"/><path fill="none" stroke="#313131" stroke-miterlimit="50" stroke-width=".99" d="M16.511 4.9v0L12.79 1.1v0h3.722v0z"/></g><g opacity=".5"><path fill="#313131" d="M16.511 4.9L12.79 8.7h3.722z"/><path fill="none" stroke="#313131" stroke-miterlimit="50" stroke-width=".99" d="M16.511 4.9v0L12.79 8.7v0h3.722v0z"/></g><g opacity=".5"><path fill="#313131" d="M1 4.9l3.723-3.8H1z"/><path fill="none" stroke="#313131" stroke-miterlimit="50" stroke-width=".99" d="M1 4.9v0l3.723-3.8v0H1v0z"/></g><g opacity=".5"><path fill="none" stroke="#313131" stroke-miterlimit="50" stroke-width=".99" d="M7.36 4.9c0-1.242.625-2.25 1.396-2.25.77 0 1.396 1.008 1.396 2.25s-.625 2.25-1.396 2.25c-.771 0-1.396-1.008-1.396-2.25z"/></g></g></g></svg>