<svg xmlns="http://www.w3.org/2000/svg" width="16" height="16" viewBox="0 0 16 16"><g><g opacity=".5"><g opacity=".5"><path fill="#313131" d="M9.313 4.5H6.687c-.262 0-.437-.175-.437-.438V1.438c0-.262.175-.437.438-.437h2.625c.262 0 .437.175.437.438v2.625c0 .262-.175.437-.438.437z"/><path fill="none" stroke="#313131" stroke-miterlimit="50" d="M9.313 4.5H6.687c-.262 0-.437-.175-.437-.438V1.438c0-.262.175-.437.438-.437h2.625c.262 0 .437.175.437.438v2.625c0 .262-.175.437-.438.437z"/></g><g opacity=".5"><path fill="#313131" d="M9.313 9.75H6.687c-.262 0-.437-.175-.437-.438V6.688c0-.263.175-.438.438-.438h2.625c.262 0 .437.175.437.438v2.625c0 .262-.175.437-.438.437z"/><path fill="none" stroke="#313131" stroke-miterlimit="50" d="M9.313 9.75H6.687c-.262 0-.437-.175-.437-.438V6.688c0-.263.175-.438.438-.438h2.625c.262 0 .437.175.437.438v2.625c0 .262-.175.437-.438.437z"/></g><g opacity=".5"><path fill="#313131" d="M9.313 15H6.687c-.262 0-.437-.175-.437-.438v-2.624c0-.263.175-.438.438-.438h2.625c.262 0 .437.175.437.438v2.624c0 .263-.175.438-.438.438z"/><path fill="none" stroke="#313131" stroke-miterlimit="50" d="M9.313 15H6.687c-.262 0-.437-.175-.437-.438v-2.624c0-.263.175-.438.438-.438h2.625c.262 0 .437.175.437.438v2.624c0 .263-.175.438-.438.438z"/></g><g opacity=".5"><path fill="#313131" d="M4.063 9.75H1.438C1.175 9.75 1 9.575 1 9.312V6.688c0-.263.175-.438.438-.438h2.625c.262 0 .437.175.437.438v2.625c0 .262-.175.437-.438.437z"/><path fill="none" stroke="#313131" stroke-miterlimit="50" d="M4.063 9.75H1.438C1.175 9.75 1 9.575 1 9.312V6.688c0-.263.175-.438.438-.438h2.625c.262 0 .437.175.437.438v2.625c0 .262-.175.437-.438.437z"/></g><g opacity=".5"><path fill="none" stroke="#313131" stroke-miterlimit="50" d="M4.063 15H1.438C1.175 15 1 14.825 1 14.562v-2.624c0-.263.175-.438.438-.438h2.625c.262 0 .437.175.437.438v2.624c0 .263-.175.438-.438.438z"/></g><g opacity=".5"><path fill="none" stroke="#313131" stroke-miterlimit="50" d="M14.563 9.75h-2.626c-.262 0-.437-.175-.437-.438V6.688c0-.263.175-.438.438-.438h2.624c.263 0 .438.175.438.438v2.625c0 .262-.175.437-.438.437z"/></g><g opacity=".5"><path fill="#313131" d="M14.563 15h-2.626c-.262 0-.437-.175-.437-.438v-2.624c0-.263.175-.438.438-.438h2.624c.263 0 .438.175.438.438v2.624c0 .263-.175.438-.438.438z"/><path fill="none" stroke="#313131" stroke-miterlimit="50" d="M14.563 15h-2.626c-.262 0-.437-.175-.437-.438v-2.624c0-.263.175-.438.438-.438h2.624c.263 0 .438.175.438.438v2.624c0 .263-.175.438-.438.438z"/></g></g></g></svg>