<svg xmlns="http://www.w3.org/2000/svg" width="15" height="15" viewBox="0 0 15 15"><g><g opacity=".5"><g opacity=".5"><path fill="#313131" d="M14.912 11.9L5.025.087C4.938 0 4.938 0 4.85 0h-3.5c-.175 0-.35.175-.262.35L4.85 12.163c0 .087.175.174.263.174h5.95l-4.113-7 6.213 7h1.575c.175 0 .35-.262.175-.437z"/></g><g opacity=".5"><path fill="#313131" d="M1 10.675C1 8.839 2.41 7.35 4.15 7.35S7.3 8.839 7.3 10.675 5.89 14 4.15 14 1 12.511 1 10.675z"/><path fill="none" stroke="#fff" stroke-miterlimit="50" stroke-width=".92" d="M1 10.675C1 8.839 2.41 7.35 4.15 7.35S7.3 8.839 7.3 10.675 5.89 14 4.15 14 1 12.511 1 10.675z"/></g><g opacity=".5"><path fill="none" stroke="#fff" stroke-linecap="round" stroke-miterlimit="50" stroke-width=".5" d="M4.15 11.988V9.363"/></g><g opacity=".5"><path fill="none" stroke="#fff" stroke-linecap="round" stroke-miterlimit="50" stroke-width=".5" d="M5.375 10.675h-2.45"/></g></g></g></svg>