<svg xmlns="http://www.w3.org/2000/svg" width="15" height="20" viewBox="0 0 15 20"><g><g><g><path fill="#d72027" d="M.204 15.13l4.464 4.657a.677.677 0 0 0 .986 0 .75.75 0 0 0 0-1.03l-3.273-3.414h11.922c.385 0 .697-.326.697-.727 0-.402-.312-.728-.697-.728H2.38l3.273-3.415a.75.75 0 0 0 0-1.029.681.681 0 0 0-.986 0L.204 14.101a.75.75 0 0 0 0 1.03z"/></g></g><g><g><path fill="#d72027" d="M14.796 4.87L10.332.213a.677.677 0 0 0-.986 0 .75.75 0 0 0 0 1.03l3.273 3.414H.697c-.385 0-.697.326-.697.727 0 .402.312.728.697.728H12.62L9.346 9.527a.75.75 0 0 0 0 1.029.681.681 0 0 0 .986 0l4.464-4.657a.75.75 0 0 0 0-1.03z"/></g></g></g></svg>