<svg xmlns="http://www.w3.org/2000/svg" width="16" height="16" viewBox="0 0 16 16"><g><g opacity=".5"><g opacity=".5"><path fill="none" stroke="#313131" stroke-linecap="round" stroke-linejoin="round" stroke-miterlimit="50" d="M1 2.237v3.988l1.81 5.717v0"/></g><g opacity=".5"><path fill="none" stroke="#313131" stroke-linecap="round" stroke-miterlimit="50" stroke-width="3" d="M11.345 11.81H3.61"/></g><g opacity=".5"><path fill="none" stroke="#313131" stroke-linecap="round" stroke-miterlimit="50" d="M2.16 8.618H6.8"/></g><g opacity=".5"><path fill="none" stroke="#313131" stroke-linecap="round" stroke-miterlimit="50" d="M7.478 13.006V14.6"/></g><g opacity=".5"><path fill="none" stroke="#313131" stroke-linecap="round" stroke-miterlimit="50" d="M3.61 15h7.735"/></g><g opacity=".5"><path fill="#313131" d="M14.922 5.029l-3.77-3.91c-.097-.159-.387-.159-.484 0L6.511 4.87c-.194.16-.097.479.193.479h1.837c.194 0 .29.16.29.24v3.43c.097.159.194.318.387.318h2.9c.194 0 .29-.16.29-.239v-3.43c0-.16.194-.24.387-.24h1.837c.29 0 .484-.239.29-.398z"/><path fill="none" stroke="#313131" stroke-miterlimit="50" d="M14.922 5.029v0l-3.77-3.91c-.097-.159-.387-.159-.484 0L6.511 4.87c-.194.16-.097.479.193.479h1.837c.194 0 .29.16.29.24v3.43c.097.159.194.318.387.318h2.9c.194 0 .29-.16.29-.239v-3.43c0-.16.194-.24.387-.24h1.837c.29 0 .484-.239.29-.398z"/></g></g></g></svg>